{"title":"Pathinaru.tamil.movie.2011.1CD.PDVD Rip.demon.mastitorrents","uid":6152616,"size":738767868,"categoryP":"video","categoryS":"other","magnet":"?xt=urn:btih:279eba2de02c0b9a616848a78ab1a9c7a5f7f617&amp;dn=Pathinaru.tamil.movie.2011.1CD.PDVD+Rip.demon.mastitorrents&amp;tr=udp%3A%2F%2Ftracker.openbittorrent.com%3A80&amp;tr=udp%3A%2F%2Fopen.demonii.com%3A1337&amp;tr=udp%3A%2F%2Ftracker.coppersurfer.tk%3A6969&amp;tr=udp%3A%2F%2Fexodus.desync.com%3A6969","seeders":0,"leechers":0,"uploader":"tdkdemon","files":2,"time":1296924806,"description":"Quote:\nGeneral\nComplete name : Pathinaru \nFormat : AVI\nFormat/Info : Audio Video Interleave\nFile size : 705 MiB\nDuration : 1h 49mn\nOverall bit rate : 899 Kbps\n\nVideo\nID : 0\nFormat : MPEG-4 Visual\nFormat profile : Simple@L3\nFormat settings, BVOP : No\nFormat settings, QPel : No\nFormat settings, GMC : No warppoints\nFormat settings, Matrix : Default (H.263)\nCodec ID : XVID\nCodec ID/Hint : XviD\nDuration : 1h 49mn\nBit rate : 757 Kbps\nWidth : 608 pixels\nHeight : 256 pixels\nDisplay aspect ratio : 2.35:1\nFrame rate : 29.970 fps\nColor space : YUV\nChroma subsampling : 4:2:0\nBit depth : 8 bits\nScan type : Progressive\nCompression mode : Lossy\nBits/(Pixel*Frame) : 0.162\nStream size : 593 MiB (84%)\nWriting library : XviD 1.1.2 (UTC 2006-11-01)\n\nAudio\nID : 1\nFormat : MPEG Audio\nFormat version : Version 1\nFormat profile : Layer 3\nMode : Joint stereo\nMode extension : MS Stereo\nCodec ID : 55\nCodec ID/Hint : MP3\nDuration : 1h 49mn\nBit rate mode : Constant\nBit rate : 128 Kbps\nChannel(s) : 2 channels\nSampling rate : 48.0 KHz\nCompression mode : Lossy\nStream size : 100 MiB (14%)\nAlignment : Split accross interleaves\nInterleave, duration : 24 ms (0.72 video frame)\n\n &lt;a href=&quot;\nhttp://img94.imageshack.us/img94/9696/i58911vlcsnap256270.png&quot; rel=&quot;nofollow&quot; target=&quot;_NEW&quot;&gt;\nhttp://img94.imageshack.us/img94/9696/i58911vlcsnap256270.png&lt;/a&gt;\n\n &lt;a href=&quot;\nhttp://img706.imageshack.us/img706/2265/i58915vlcsnap251514.png&quot; rel=&quot;nofollow&quot; target=&quot;_NEW&quot;&gt;\nhttp://img706.imageshack.us/img706/2265/i58915vlcsnap251514.png&lt;/a&gt;\n\n &lt;a href=&quot;\nhttp://img148.imageshack.us/img148/5214/vlcsnap256572.png&quot; rel=&quot;nofollow&quot; target=&quot;_NEW&quot;&gt;\nhttp://img148.imageshack.us/img148/5214/vlcsnap256572.png&lt;/a&gt;\n\n\n &lt;a href=&quot;\nhttp://img15.imageshack.us/img15/647/i58912vlcsnap248263.png&quot; rel=&quot;nofollow&quot; target=&quot;_NEW&quot;&gt;\nhttp://img15.imageshack.us/img15/647/i58912vlcsnap248263.png&lt;/a&gt;","torrent":{"xt":"urn:btih:279eba2de02c0b9a616848a78ab1a9c7a5f7f617","amp;dn":"Pathinaru.tamil.movie.2011.1CD.PDVD+Rip.demon.mastitorrents","amp;tr":["udp%3A%2F%2Ftracker.openbittorrent.com%3A80","udp%3A%2F%2Fopen.demonii.com%3A1337","udp%3A%2F%2Ftracker.coppersurfer.tk%3A6969","udp%3A%2F%2Fexodus.desync.com%3A6969"],"infoHash":"279eba2de02c0b9a616848a78ab1a9c7a5f7f617","infoHashBuffer":{"type":"Buffer","data":[39,158,186,45,224,44,11,154,97,104,72,167,138,177,169,199,165,247,246,23]},"announce":[],"urlList":[]}}